<?xml version="1.0" encoding="utf-8"?>
<!-- Generator: Adobe Illustrator 19.1.0, SVG Export Plug-In . SVG Version: 6.00 Build 0)  -->
<svg version="1.1" id="Layer_1" xmlns="http://www.w3.org/2000/svg" xmlns:xlink="http://www.w3.org/1999/xlink" x="0px" y="0px"
	 viewBox="0 0 591.8 118.3" style="enable-background:new 0 0 591.8 118.3;" xml:space="preserve">
<style type="text/css">
	.st0{fill:#243E6B;}
	.st1{fill:#074F8B;}
</style>
<path class="st0" d="M21.9,31.8c25.9-15.3,35-15.5,60.5,0c0,0.5,0,1.1,0,1.7c0,2.4,0,4.8,0,7.2l20.7-11.4L52.3,0L1.5,29.3l20.4,11.5
	c0-2.5,0-4.9,0-7.4C21.9,32.9,21.9,32.4,21.9,31.8z"/>
<path class="st0" d="M82.4,44.8c0,9.6,0,19.2,0.1,28.8c0.1,5-1.7,9.2-4.9,13.1c-4.5,5.4-10.2,9.6-16.2,13.3c-1.5,0.9-3,1.8-4.5,2.6
	v15.7l47.8-27.6V32L82.4,44.8z"/>
<path class="st0" d="M27.7,87.9c-3.9-4.3-6-9-5.9-14.8c0.2-9.5,0.1-18.9,0.1-28.4L0,32v58.7l47.8,27.6v-15.5
	C40.4,98.7,33.4,94.1,27.7,87.9z"/>
<path class="st1" d="M66,59.7h10.9c-1.1-11.9-10.5-21.3-22.4-22.4v10.9h-4.7V37.3c-11.9,1.1-21.3,10.5-22.4,22.4h10.9v4.7H27.4
	c1.1,11.9,10.6,21.3,22.4,22.4V76h4.7v10.9c11.9-1.1,21.3-10.5,22.4-22.4H66V59.7z M56.1,41.3c8.5,1.6,15.1,8.3,16.7,16.8h-3.2
	c-1.5-6.7-6.8-12-13.5-13.6V41.3z M34.7,58.1h-3.2c1.6-8.5,8.2-15.2,16.7-16.8v3.2C41.5,46.1,36.2,51.4,34.7,58.1z M48.2,82.6
	c-8.4-1.6-15-8.2-16.7-16.6h3.2c1.6,6.6,6.8,11.8,13.4,13.3V82.6z M52.1,73.2c-6.1,0-11.1-5-11.1-11.1C41.1,56,46,51,52.1,51
	c6.1,0,11.1,5,11.1,11.1C63.2,68.2,58.3,73.2,52.1,73.2z M69.5,66h3.2c-1.7,8.4-8.3,14.9-16.7,16.6v-3.2C62.8,77.9,68,72.7,69.5,66z
	"/>
<g>
	<path class="st0" d="M130.4,30.6h6.5v43h30v4.3h-36.5V30.6z"/>
	<path class="st0" d="M206.2,51.3v4.3h-30.1v18.3h33v4.2h-39.5V30.6h38.2v3.9h-31.7v16.8H206.2z"/>
	<path class="st0" d="M217.3,63.1c0,2.6,0.1,5,0.9,7.3c0.3,0.7,0.4,1.1,0.8,1.4c0.3,0.2,0.8,0.6,1.6,0.8c3.7,1.3,8.3,1.3,12,1.3
		c4.9,0,9.6-0.2,13.3-0.8c0.7-0.2,1.2-0.3,1.5-0.4c0.4-0.2,0.7-0.4,1-0.8c1.2-2,1.6-4.1,1.6-6.2c0-1.9-0.3-3.1-0.8-5
		c-0.3-0.8-0.3-1-0.7-1.6c-0.3-0.2-0.7-0.6-1.4-0.9c-1.3-0.6-3.4-1-5-1.3c-2.3-0.4-5.4-0.8-10.4-1c-5.2-0.3-8.4-0.7-10.9-1.3
		c-1.7-0.3-3.4-0.8-4.6-1.3c-1.1-0.4-1.7-0.8-2.1-1.3c-0.4-0.4-0.7-1-1.1-2c-0.8-2.3-1.5-4.7-1.5-7.7c0-3.3,0.7-6.5,2.4-8.9
		c0.5-0.7,0.8-0.9,1.5-1.3c0.7-0.3,1.3-0.5,2.5-0.8c4.7-0.9,8.6-1.3,15.2-1.3c5.8,0,11.7,0.5,16.1,1.6c1.1,0.3,1.5,0.5,2.3,0.9
		c0.5,0.4,0.8,0.8,1.2,1.5c2,3.3,2.4,7.1,2.4,10.8l-6.5-0.2c-0.1-2.6-0.1-4.3-0.9-6.7c-0.3-0.7-0.4-1-0.8-1.4
		c-0.4-0.3-0.8-0.6-1.6-0.9c-3.8-1.1-7.9-1.3-12.1-1.3c-4.8,0-7.4,0.1-10.9,0.8c-0.8,0.2-1.4,0.3-1.8,0.5c-0.3,0.2-0.6,0.4-0.9,0.8
		c-1.2,1.9-1.7,4.3-1.7,6.3c0,1.7,0.3,2.8,0.8,4.3c0.1,0.6,0.3,1,0.6,1.3c0.2,0.2,0.6,0.6,1.3,0.8c1.1,0.4,2.9,0.8,4.6,1.2
		c1.9,0.3,4.7,0.7,9.1,0.9c5.4,0.3,8.9,0.6,11.8,1.2c1.6,0.3,3.7,0.8,5,1.3c1.2,0.6,1.8,0.9,2.3,1.3s0.9,1.1,1.3,2.1
		c0.8,2.3,1.7,4.8,1.7,7.8c0,3.4-0.6,7-2.5,9.7c-0.4,0.7-0.7,1.1-1.4,1.4c-0.5,0.3-1.2,0.5-2.5,0.8c-4.6,1-10.9,1.4-17.4,1.4
		c-5.8,0-11.7-0.3-15.9-1.6c-1.2-0.3-1.9-0.5-2.4-0.8s-0.8-0.8-1.3-1.6C211.6,71,211,66.8,211,63L217.3,63.1z"/>
	<path class="st0" d="M266.1,63.1c0,2.6,0.1,5,0.9,7.3c0.3,0.7,0.4,1.1,0.8,1.4c0.3,0.2,0.8,0.6,1.6,0.8c3.7,1.3,8.3,1.3,12,1.3
		c4.9,0,9.6-0.2,13.3-0.8c0.7-0.2,1.2-0.3,1.5-0.4c0.4-0.2,0.7-0.4,1-0.8c1.2-2,1.6-4.1,1.6-6.2c0-1.9-0.3-3.1-0.8-5
		c-0.3-0.8-0.3-1-0.7-1.6c-0.3-0.2-0.7-0.6-1.4-0.9c-1.3-0.6-3.4-1-5-1.3c-2.3-0.4-5.4-0.8-10.4-1c-5.2-0.3-8.4-0.7-10.9-1.3
		c-1.7-0.3-3.4-0.8-4.6-1.3c-1.1-0.4-1.7-0.8-2.1-1.3c-0.4-0.4-0.7-1-1.1-2c-0.8-2.3-1.5-4.7-1.5-7.7c0-3.3,0.7-6.5,2.4-8.9
		c0.5-0.7,0.8-0.9,1.5-1.3c0.7-0.3,1.3-0.5,2.5-0.8c4.7-0.9,8.6-1.3,15.2-1.3c5.8,0,11.7,0.5,16.1,1.6c1.1,0.3,1.5,0.5,2.3,0.9
		c0.5,0.4,0.8,0.8,1.2,1.5c2,3.3,2.4,7.1,2.4,10.8l-6.5-0.2c-0.1-2.6-0.1-4.3-0.9-6.7c-0.3-0.7-0.4-1-0.8-1.4
		c-0.4-0.3-0.8-0.6-1.6-0.9c-3.8-1.1-7.9-1.3-12.1-1.3c-4.8,0-7.4,0.1-10.9,0.8c-0.8,0.2-1.4,0.3-1.8,0.5c-0.3,0.2-0.6,0.4-0.9,0.8
		c-1.2,1.9-1.7,4.3-1.7,6.3c0,1.7,0.3,2.8,0.8,4.3c0.1,0.6,0.3,1,0.6,1.3c0.2,0.2,0.6,0.6,1.3,0.8c1.1,0.4,2.9,0.8,4.6,1.2
		c1.9,0.3,4.7,0.7,9.1,0.9c5.4,0.3,8.9,0.6,11.8,1.2c1.6,0.3,3.7,0.8,5,1.3c1.2,0.6,1.8,0.9,2.3,1.3s0.9,1.1,1.3,2.1
		c0.8,2.3,1.7,4.8,1.7,7.8c0,3.4-0.6,7-2.5,9.7c-0.4,0.7-0.7,1.1-1.4,1.4c-0.5,0.3-1.2,0.5-2.5,0.8c-4.6,1-10.9,1.4-17.4,1.4
		c-5.8,0-11.7-0.3-15.9-1.6c-1.2-0.3-1.9-0.5-2.4-0.8s-0.8-0.8-1.3-1.6c-1.6-3.3-2.2-7.6-2.2-11.3L266.1,63.1z"/>
</g>
<g>
	<g>
		<g>
			<path class="st1" d="M240.7,105.3c0,1.2-0.2,2.7-0.9,4c-0.2,0.3-0.3,0.5-0.5,0.6c-0.2,0.1-0.4,0.2-0.9,0.3
				c-2.1,0.5-4.8,0.6-6.7,0.6c-2.1,0-4.9-0.1-7.3-0.8c-0.5-0.2-0.7-0.3-1-0.5c-0.2-0.2-0.3-0.4-0.5-0.8c-0.9-2.1-0.9-5-0.9-6.6
				c0-1.7,0-4.5,0.9-6.6c0.2-0.4,0.3-0.6,0.5-0.8c0.3-0.2,0.5-0.3,1-0.5c2.2-0.8,5.5-0.8,7.3-0.8c1.7,0,4.4,0,6.5,0.6
				c0.4,0.1,0.7,0.2,0.9,0.4c0.2,0.1,0.3,0.3,0.5,0.6c0.6,1.2,0.8,2.6,0.9,3.8h-2.4c0-1.1-0.2-2.2-0.7-2.9c-0.1-0.2-0.2-0.3-0.3-0.4
				c-0.1-0.1-0.3-0.2-0.6-0.2c-1.1-0.3-2.9-0.4-4.6-0.4c-2.1,0-4.2,0.2-5.5,0.7c-0.3,0.2-0.5,0.3-0.7,0.4c-0.2,0.2-0.3,0.3-0.4,0.7
				c-0.6,1.3-0.8,3.4-0.8,5.4c0,2.1,0.2,4.1,0.7,5.4c0.2,0.4,0.3,0.5,0.5,0.7c0.2,0.2,0.3,0.3,0.7,0.4c1.3,0.5,3.4,0.7,5.5,0.7
				c1.8,0,3.6-0.2,4.8-0.4c0.3-0.1,0.5-0.1,0.6-0.2c0.2-0.1,0.2-0.2,0.3-0.4c0.4-0.8,0.6-1.8,0.7-3H240.7z"/>
			<path class="st1" d="M231.8,111.1c-2.5,0-5.1-0.1-7.4-0.8c-0.5-0.2-0.7-0.3-1-0.5c-0.3-0.3-0.4-0.5-0.6-0.9c-1-2.2-1-5.1-1-6.8
				c0-1.7,0-4.6,1-6.7c0.2-0.4,0.4-0.6,0.6-0.9c0.3-0.2,0.5-0.3,0.9-0.5l0.2-0.1c2.4-0.8,5.8-0.8,7.4-0.8c1.7,0,4.5,0,6.6,0.6
				c0.4,0.1,0.7,0.2,0.9,0.4c0.2,0.1,0.3,0.4,0.5,0.7c0.5,1,0.8,2.3,0.9,3.9l0,0.3h-2.9l0-0.2c0-1.2-0.3-2.2-0.7-2.8l-0.1-0.1
				c-0.1-0.1-0.1-0.2-0.2-0.2c-0.1-0.1-0.3-0.1-0.5-0.2c-0.9-0.3-2.4-0.4-4.6-0.4c-2.3,0-4.2,0.3-5.4,0.7c-0.4,0.2-0.5,0.3-0.6,0.4
				c-0.1,0.1-0.2,0.2-0.3,0.6c-0.5,1.1-0.8,3-0.8,5.3c0,2.2,0.3,4.1,0.7,5.3c0.1,0.3,0.3,0.5,0.4,0.6c0.1,0.1,0.2,0.2,0.6,0.3
				c1.1,0.4,3.1,0.7,5.4,0.7c1.9,0,3.6-0.2,4.7-0.4l0.2-0.1c0.2-0.1,0.3-0.1,0.4-0.1c0.1,0,0.1-0.1,0.2-0.2l0.1-0.1
				c0.4-0.7,0.6-1.6,0.6-2.8l0-0.2h2.9v0.3c0,1.1-0.2,2.7-0.9,4.1c-0.2,0.3-0.3,0.5-0.5,0.7c-0.2,0.1-0.5,0.2-0.9,0.4
				C236.4,111,233.7,111.1,231.8,111.1z M231.8,93.6c-1.6,0-4.9,0-7.2,0.8l-0.2,0.1c-0.3,0.2-0.5,0.2-0.7,0.4
				c-0.2,0.2-0.3,0.3-0.5,0.7c-0.9,2.1-0.9,4.9-0.9,6.5c0,1.7,0,4.4,0.9,6.5c0.2,0.3,0.3,0.5,0.5,0.7c0.2,0.2,0.4,0.3,0.9,0.4
				c2.2,0.7,4.8,0.8,7.2,0.8c1.8,0,4.5-0.1,6.6-0.6c0.4-0.1,0.6-0.2,0.8-0.3c0.1-0.1,0.2-0.2,0.4-0.5c0.6-1.2,0.8-2.6,0.8-3.6h-1.9
				c-0.1,1.1-0.3,2.1-0.7,2.8l-0.1,0.1c-0.1,0.1-0.2,0.3-0.3,0.4c-0.1,0.1-0.3,0.1-0.5,0.2l-0.2,0.1c-1.1,0.3-2.9,0.4-4.8,0.4
				c-2.3,0-4.4-0.3-5.5-0.7c-0.4-0.1-0.6-0.3-0.8-0.4c-0.2-0.2-0.3-0.4-0.5-0.8c-0.5-1.3-0.8-3.3-0.8-5.5c0-2.5,0.3-4.3,0.8-5.5
				c0.2-0.4,0.3-0.6,0.5-0.8c0.2-0.2,0.4-0.3,0.8-0.4c1.2-0.5,3.2-0.7,5.6-0.7c2.2,0,3.8,0.1,4.7,0.4c0.3,0.1,0.5,0.2,0.7,0.3
				c0.1,0.1,0.2,0.2,0.3,0.3l0.1,0.1c0.5,0.8,0.7,2,0.7,2.8h1.9c-0.1-1.4-0.3-2.5-0.8-3.4c-0.1-0.3-0.3-0.4-0.4-0.5
				c-0.1-0.1-0.3-0.2-0.8-0.3C236.3,93.6,233.5,93.6,231.8,93.6z"/>
		</g>
		<g>
			<path class="st1" d="M268.1,110.9c-1.9,0-4.8-0.1-6.9-0.8c-0.5-0.2-0.8-0.3-1-0.5c-0.2-0.2-0.3-0.4-0.5-0.8
				c-0.8-2.1-0.9-5-0.9-6.6c0-1.7,0-4.5,0.9-6.6c0.2-0.4,0.3-0.6,0.5-0.8c0.3-0.2,0.5-0.3,1-0.5c2-0.8,5.3-0.8,6.9-0.8
				c1.8,0,4.8,0,7,0.8c0.5,0.2,0.7,0.3,0.9,0.5c0.2,0.2,0.3,0.4,0.5,0.8c0.9,2.1,0.9,4.9,0.9,6.6c0,1.6,0,4.5-0.9,6.6
				c-0.2,0.4-0.3,0.6-0.5,0.8c-0.2,0.2-0.5,0.3-0.9,0.5C272.8,110.8,270.2,110.9,268.1,110.9z M273.9,108.2c0.2-0.2,0.2-0.4,0.3-0.6
				c0.5-1.4,0.7-3.4,0.7-5.5c0-2.1-0.2-4.1-0.7-5.5c-0.2-0.4-0.2-0.5-0.3-0.7c-0.2-0.1-0.3-0.2-0.7-0.4c-1.2-0.5-3.1-0.7-5.1-0.7
				c-1.9,0-3.8,0.2-5.1,0.7c-0.3,0.2-0.5,0.3-0.7,0.4c-0.2,0.2-0.2,0.3-0.4,0.7c-0.5,1.4-0.7,3.4-0.7,5.5c0,2.1,0.2,4,0.7,5.5
				c0.1,0.3,0.2,0.5,0.4,0.6c0.2,0.2,0.3,0.3,0.6,0.4c1.3,0.5,3.2,0.7,5.1,0.7c2,0,3.9-0.2,5.1-0.7
				C273.6,108.5,273.8,108.4,273.9,108.2z"/>
			<path class="st1" d="M268.1,111.1c-2.2,0-4.9-0.1-7-0.8c-0.5-0.1-0.8-0.3-1.1-0.5c-0.2-0.2-0.4-0.5-0.5-0.9
				c-0.9-2.4-0.9-5.7-0.9-6.7c0-1.4,0-4.4,0.9-6.7c0.2-0.4,0.3-0.6,0.6-0.9c0.3-0.3,0.5-0.4,1.1-0.6c2.2-0.8,5.7-0.8,7-0.8
				c1.6,0,4.8,0,7,0.8c0.5,0.2,0.7,0.3,1,0.6c0.2,0.3,0.4,0.5,0.6,0.9c0.9,2.1,0.9,4.8,0.9,6.5v0.4c0,1.7,0,4.4-0.9,6.5
				c-0.2,0.4-0.3,0.6-0.5,0.9c-0.2,0.3-0.6,0.4-1,0.6C273,111,270.5,111.1,268.1,111.1z M268.1,93.6c-1.3,0-4.7,0-6.8,0.8
				c-0.5,0.2-0.7,0.3-0.9,0.5c-0.2,0.2-0.3,0.3-0.4,0.7c-0.9,2.2-0.9,5.1-0.9,6.5c0,1,0,4.2,0.9,6.5c0.1,0.3,0.3,0.5,0.5,0.7
				c0.1,0.2,0.4,0.3,0.9,0.4c2,0.7,4.7,0.8,6.8,0.8c2.3,0,4.8-0.1,6.9-0.8c0.5-0.2,0.7-0.3,0.8-0.4c0.2-0.2,0.3-0.4,0.5-0.7
				c0.9-2,0.9-4.7,0.9-6.3v-0.4c0-1.7,0-4.4-0.9-6.3c-0.1-0.4-0.3-0.5-0.5-0.7c-0.2-0.2-0.4-0.2-0.8-0.5
				C272.8,93.6,269.7,93.6,268.1,93.6z M268.1,109.6c-1.2,0-3.6-0.1-5.2-0.7c-0.3-0.1-0.5-0.3-0.7-0.4c-0.2-0.2-0.3-0.4-0.4-0.7
				c-0.5-1.4-0.8-3.4-0.8-5.6c0-2.2,0.3-4.3,0.8-5.5c0.2-0.4,0.3-0.6,0.4-0.8c0.2-0.2,0.4-0.3,0.7-0.4c1.2-0.5,3.1-0.7,5.2-0.7
				c2.2,0,4.1,0.3,5.2,0.7c0.3,0.1,0.6,0.3,0.8,0.4l0,0c0.1,0.2,0.2,0.3,0.4,0.7c0.5,1.3,0.8,3.3,0.8,5.6c0,2.2-0.3,4.2-0.7,5.6
				l-0.1,0.1c-0.1,0.2-0.2,0.4-0.3,0.6l0,0c-0.2,0.2-0.4,0.3-0.8,0.5C272.2,109.3,270.3,109.6,268.1,109.6z M268.1,95.1
				c-2,0-3.8,0.3-5,0.7c-0.3,0.1-0.4,0.2-0.6,0.4c-0.1,0.1-0.2,0.2-0.3,0.6c-0.5,1.2-0.7,3.2-0.7,5.4c0,2.1,0.3,4.1,0.7,5.4
				c0.1,0.3,0.2,0.4,0.3,0.5c0.1,0.1,0.3,0.2,0.5,0.3c1.1,0.4,3,0.7,5,0.7c2.1,0,3.9-0.2,5-0.6c0.3-0.1,0.5-0.2,0.6-0.4
				c0.1-0.1,0.2-0.2,0.2-0.4l0.1-0.1c0.5-1.3,0.7-3.2,0.7-5.4c0-2.2-0.3-4.1-0.7-5.4c-0.1-0.3-0.2-0.5-0.3-0.6
				c-0.1-0.1-0.3-0.2-0.6-0.3C272.1,95.4,270.3,95.1,268.1,95.1z"/>
		</g>
		<g>
			<path class="st1" d="M313.2,109.2V108V93.6h2.5v17.1h-4.3l-11.5-14.4c-0.3-0.4-0.6-0.8-0.9-1.3h-0.1c0,0.5,0,0.9,0,1.3v14.4h-2.5
				V93.6h3.9l11.8,14.4C312.5,108.4,312.8,108.8,313.2,109.2L313.2,109.2z"/>
			<path class="st1" d="M315.9,111h-4.7l-0.1-0.1l-11.5-14.4c-0.2-0.2-0.4-0.5-0.6-0.7c0,0,0,0,0,0c0,0.2,0,0.4,0,0.6V111h-3V93.3
				h4.3l12.1,14.7c0.1,0.2,0.3,0.4,0.4,0.5V93.3h3V111z M311.5,110.4h3.9V93.8h-2v15.7H313l-0.1-0.1c-0.3-0.3-0.5-0.7-0.8-1
				l-0.2-0.3l-11.7-14.3h-3.6v16.6h2V96.3c0-0.2,0-0.4,0-0.6c0-0.2,0-0.5,0-0.7v-0.3h0.5l0.2,0.3c0.2,0.4,0.5,0.7,0.8,1L311.5,110.4
				z"/>
		</g>
		<g>
			<path class="st1" d="M353.2,105.3c0,1.2-0.2,2.7-0.9,4c-0.2,0.3-0.3,0.5-0.5,0.6c-0.2,0.1-0.4,0.2-0.9,0.3
				c-2.1,0.5-4.8,0.6-6.7,0.6c-2.1,0-4.9-0.1-7.3-0.8c-0.5-0.2-0.7-0.3-1-0.5c-0.2-0.2-0.3-0.4-0.5-0.8c-0.9-2.1-0.9-5-0.9-6.6
				c0-1.7,0-4.5,0.9-6.6c0.2-0.4,0.3-0.6,0.5-0.8c0.3-0.2,0.5-0.3,1-0.5c2.2-0.8,5.5-0.8,7.3-0.8c1.7,0,4.4,0,6.5,0.6
				c0.4,0.1,0.7,0.2,0.9,0.4c0.2,0.1,0.3,0.3,0.5,0.6c0.6,1.2,0.8,2.6,0.9,3.8h-2.4c0-1.1-0.2-2.2-0.7-2.9c-0.1-0.2-0.2-0.3-0.3-0.4
				c-0.1-0.1-0.3-0.2-0.6-0.2c-1.1-0.3-2.9-0.4-4.6-0.4c-2,0-4.2,0.2-5.5,0.7c-0.3,0.2-0.5,0.3-0.7,0.4c-0.2,0.2-0.3,0.3-0.4,0.7
				c-0.6,1.3-0.8,3.4-0.8,5.4c0,2.1,0.2,4.1,0.7,5.4c0.2,0.4,0.3,0.5,0.5,0.7c0.2,0.2,0.3,0.3,0.7,0.4c1.3,0.5,3.4,0.7,5.5,0.7
				c1.8,0,3.6-0.2,4.8-0.4c0.3-0.1,0.5-0.1,0.6-0.2c0.2-0.1,0.2-0.2,0.3-0.4c0.4-0.8,0.6-1.8,0.7-3H353.2z"/>
			<path class="st1" d="M344.4,111.1c-2.5,0-5.1-0.1-7.4-0.8c-0.5-0.2-0.7-0.3-1-0.5c-0.3-0.3-0.4-0.5-0.6-0.9c-1-2.2-1-5.1-1-6.8
				c0-1.7,0-4.6,1-6.7c0.2-0.4,0.4-0.6,0.6-0.9c0.3-0.2,0.5-0.3,0.9-0.5L337,94c2.4-0.8,5.8-0.8,7.4-0.8c1.7,0,4.5,0,6.6,0.6
				c0.4,0.1,0.7,0.2,0.9,0.4c0.2,0.1,0.3,0.4,0.5,0.7c0.5,1,0.8,2.3,0.9,3.9l0,0.3h-2.9l0-0.2c0-1.2-0.3-2.2-0.7-2.8l-0.1-0.1
				c-0.1-0.1-0.1-0.2-0.2-0.2c-0.1-0.1-0.3-0.1-0.5-0.2c-0.9-0.3-2.4-0.4-4.6-0.4c-2.3,0-4.2,0.3-5.4,0.7c-0.3,0.2-0.5,0.3-0.6,0.4
				c-0.1,0.1-0.2,0.2-0.3,0.6c-0.5,1.1-0.8,3-0.8,5.3c0,2.2,0.3,4.1,0.7,5.3c0.1,0.3,0.3,0.5,0.4,0.6c0.1,0.1,0.2,0.2,0.6,0.3
				c1.1,0.4,3.1,0.7,5.4,0.7c1.9,0,3.6-0.2,4.7-0.4l0.2-0.1c0.2-0.1,0.3-0.1,0.4-0.1c0.1,0,0.1-0.1,0.2-0.2l0.1-0.1
				c0.4-0.7,0.6-1.6,0.6-2.8l0-0.2h2.9v0.3c0,1.1-0.2,2.7-0.9,4.1c-0.1,0.3-0.3,0.5-0.5,0.7c-0.2,0.1-0.5,0.2-0.9,0.4
				C349,111,346.3,111.1,344.4,111.1z M344.4,93.6c-1.6,0-4.9,0-7.2,0.8l-0.2,0.1c-0.3,0.2-0.5,0.2-0.7,0.4
				c-0.2,0.2-0.3,0.3-0.5,0.7c-0.9,2.1-0.9,4.9-0.9,6.5c0,1.7,0,4.4,0.9,6.5c0.2,0.3,0.3,0.5,0.5,0.7c0.2,0.2,0.4,0.3,0.9,0.4
				c2.2,0.7,4.8,0.8,7.2,0.8c1.8,0,4.5-0.1,6.6-0.6c0.4-0.1,0.6-0.2,0.8-0.3c0.1-0.1,0.2-0.3,0.4-0.5c0.6-1.2,0.8-2.6,0.8-3.6h-1.9
				c-0.1,1.1-0.3,2.1-0.7,2.8l-0.1,0.1c-0.1,0.1-0.2,0.3-0.4,0.4c-0.1,0.1-0.3,0.1-0.5,0.2l-0.2,0.1c-1.1,0.3-2.9,0.4-4.8,0.4
				c-2.3,0-4.3-0.3-5.5-0.7c-0.3-0.1-0.6-0.3-0.8-0.4c-0.2-0.2-0.3-0.4-0.5-0.8c-0.5-1.3-0.8-3.3-0.8-5.5c0-2.5,0.3-4.3,0.8-5.5
				c0.2-0.4,0.3-0.6,0.5-0.8c0.2-0.2,0.4-0.3,0.8-0.4c1.2-0.5,3.2-0.7,5.6-0.7c2.2,0,3.8,0.1,4.7,0.4c0.3,0.1,0.5,0.2,0.7,0.3
				c0.1,0.1,0.2,0.2,0.3,0.3l0.1,0.1c0.5,0.8,0.7,2,0.7,2.8h1.9c-0.1-1.4-0.3-2.5-0.8-3.4c-0.1-0.3-0.3-0.4-0.4-0.5
				c-0.1-0.1-0.3-0.2-0.8-0.3C348.8,93.6,346.1,93.6,344.4,93.6z"/>
		</g>
		<g>
			<path class="st1" d="M385.7,101v1.5h-11.4v6.6h12.6v1.5h-15V93.6h14.5V95h-12.1v6.1H385.7z"/>
			<path class="st1" d="M387.1,111h-15.6V93.3h15v1.9h-12.1v5.6H386v2h-11.4v6.1h12.6V111z M372.1,110.4h14.5v-1H374v-7.1h11.4v-1
				H374v-6.6h12.1v-0.9h-14V110.4z"/>
		</g>
		<g>
			<path class="st1" d="M422.5,98.9c0,1,0,2.8-0.8,4.1c-0.2,0.2-0.3,0.4-0.5,0.5c-0.2,0.1-0.5,0.2-0.8,0.3c-1.5,0.4-3.6,0.5-5.7,0.5
				h-7v6.4h-2.5V93.6h9.5c2.1,0,4.2,0.1,5.7,0.5c0.3,0.1,0.6,0.2,0.8,0.3c0.2,0.1,0.3,0.2,0.5,0.5C422.6,96,422.5,98,422.5,98.9z
				 M419.2,95.8c-0.1-0.1-0.3-0.2-0.5-0.2c-1-0.2-2.3-0.3-3.6-0.3h-7.3v7.4h7.3c1.4,0,2.7-0.1,3.6-0.3c0.3-0.1,0.4-0.1,0.5-0.2
				s0.2-0.2,0.3-0.3c0.6-0.9,0.6-2,0.6-2.8c0-0.8,0-1.9-0.6-2.8C419.3,96,419.3,95.9,419.2,95.8z"/>
			<path class="st1" d="M407.9,111h-3V93.3h9.8c2.6,0,4.4,0.1,5.8,0.5c0.3,0.1,0.7,0.2,0.9,0.3c0.2,0.1,0.4,0.3,0.5,0.6
				c0.9,1.2,0.9,3.1,0.9,4.1V99c0,1.1,0,2.8-0.9,4.1c-0.2,0.3-0.3,0.4-0.5,0.6c-0.2,0.1-0.5,0.2-0.8,0.3l-0.1,0
				c-1.4,0.3-3.3,0.5-5.8,0.5h-6.8V111z M405.4,110.4h2V104h7.3c2.4,0,4.3-0.2,5.7-0.5l0.1,0c0.3-0.1,0.5-0.1,0.6-0.2
				c0.2-0.1,0.3-0.2,0.4-0.4c0.8-1.2,0.8-2.9,0.8-3.9v-0.2c0-1,0-2.7-0.8-3.8c-0.1-0.2-0.2-0.3-0.4-0.4c-0.2-0.1-0.5-0.2-0.7-0.3
				c-1.7-0.4-4-0.4-5.7-0.4h-9.3V110.4z M415,102.9h-7.6v-7.9h7.6c1.6,0,2.8,0.1,3.7,0.3c0.3,0.1,0.5,0.2,0.6,0.3
				c0.1,0.1,0.2,0.2,0.2,0.3l0.1,0.1c0.6,1,0.6,2.2,0.6,3c0,0.9,0,2-0.6,3l-0.1,0.1c-0.1,0.1-0.1,0.2-0.2,0.3
				c-0.1,0.1-0.3,0.2-0.6,0.3C417.6,102.8,416.2,102.9,415,102.9z M407.9,102.4h7.1c1.1,0,2.5,0,3.6-0.3c0.2-0.1,0.4-0.1,0.5-0.2
				c0,0,0.1-0.1,0.1-0.2c0,0,0.1-0.1,0.1-0.1c0.5-0.8,0.5-1.9,0.5-2.7c0-0.7,0-1.9-0.5-2.7c0,0-0.1-0.1-0.1-0.1
				c-0.1-0.1-0.1-0.1-0.1-0.2c-0.1-0.1-0.2-0.1-0.5-0.2c-0.8-0.2-2.1-0.3-3.6-0.3h-7.1V102.4z"/>
		</g>
		<g>
			<path class="st1" d="M449.2,110.7h-2.5V95.1h-7.5v-1.5h17.5v1.5h-7.5V110.7z"/>
			<path class="st1" d="M449.5,111h-3V95.4h-7.5v-2h18v2h-7.5V111z M446.9,110.4h2V94.9h7.5v-1h-17v1h7.5V110.4z"/>
		</g>
		<g>
			<path class="st1" d="M476.2,105.3c0,0.9,0,1.8,0.3,2.7c0.1,0.2,0.2,0.4,0.3,0.5c0.1,0.1,0.3,0.2,0.6,0.3c1.4,0.5,3.2,0.5,4.6,0.5
				c1.9,0,3.6-0.1,5.1-0.3c0.3-0.1,0.5-0.1,0.6-0.2c0.2-0.1,0.3-0.2,0.4-0.3c0.5-0.7,0.6-1.5,0.6-2.2c0-0.7-0.1-1.1-0.3-1.8
				c-0.1-0.3-0.1-0.4-0.3-0.6c-0.1-0.1-0.3-0.2-0.5-0.3c-0.5-0.2-1.3-0.4-1.9-0.5c-0.9-0.2-2-0.3-3.9-0.4c-2-0.1-3.2-0.2-4.1-0.5
				c-0.7-0.1-1.3-0.3-1.7-0.5c-0.4-0.2-0.7-0.3-0.8-0.5c-0.2-0.2-0.3-0.4-0.4-0.7c-0.3-0.8-0.6-1.7-0.6-2.8c0-1.2,0.3-2.4,0.9-3.2
				c0.2-0.2,0.3-0.3,0.6-0.5c0.3-0.1,0.5-0.2,1-0.3c1.8-0.3,3.3-0.5,5.8-0.5c2.2,0,4.4,0.2,6.1,0.6c0.4,0.1,0.6,0.2,0.9,0.3
				c0.2,0.2,0.3,0.3,0.5,0.5c0.8,1.2,0.9,2.6,0.9,3.9l-2.5-0.1c0-0.9,0-1.6-0.3-2.4c-0.1-0.2-0.2-0.4-0.3-0.5
				c-0.2-0.1-0.3-0.2-0.6-0.3c-1.4-0.4-3-0.5-4.6-0.5c-1.8,0-2.8,0-4.1,0.3c-0.3,0.1-0.5,0.1-0.7,0.2c-0.1,0.1-0.2,0.2-0.3,0.3
				c-0.5,0.7-0.7,1.5-0.7,2.3c0,0.6,0.1,1,0.3,1.5c0,0.2,0.1,0.4,0.2,0.5c0.1,0.1,0.2,0.2,0.5,0.3c0.4,0.2,1.1,0.3,1.7,0.4
				c0.7,0.1,1.8,0.2,3.5,0.3c2,0.1,3.4,0.2,4.5,0.4c0.6,0.1,1.4,0.3,1.9,0.5c0.5,0.2,0.7,0.3,0.9,0.5c0.2,0.2,0.3,0.4,0.5,0.8
				c0.3,0.8,0.7,1.7,0.7,2.8c0,1.2-0.2,2.5-1,3.5c-0.2,0.2-0.3,0.4-0.5,0.5c-0.2,0.1-0.5,0.2-1,0.3c-1.7,0.4-4.1,0.5-6.6,0.5
				c-2.2,0-4.4-0.1-6-0.6c-0.5-0.1-0.7-0.2-0.9-0.3c-0.2-0.1-0.3-0.3-0.5-0.6c-0.6-1.2-0.9-2.7-0.9-4.1L476.2,105.3z"/>
			<path class="st1" d="M482.1,111.1c-2.7,0-4.7-0.2-6.1-0.6l-0.1,0c-0.4-0.1-0.7-0.2-0.9-0.3c-0.2-0.1-0.4-0.3-0.5-0.6l0-0.1
				c-0.8-1.5-0.9-3.3-0.9-4.2V105l2.9,0v0.3c0,0.8,0,1.7,0.3,2.6l0.1,0.1c0.1,0.1,0.1,0.2,0.2,0.3c0.1,0.1,0.3,0.2,0.5,0.3
				c1.3,0.4,3,0.5,4.5,0.5c2.3,0,3.8-0.1,5-0.3c0.2,0,0.3-0.1,0.4-0.1l0.1,0c0.1,0,0.2-0.1,0.2-0.2c0.4-0.6,0.6-1.3,0.6-2.1
				c0-0.7-0.1-1.1-0.3-1.7c0-0.1-0.1-0.1-0.1-0.2c0-0.1-0.1-0.2-0.1-0.3c-0.1-0.1-0.2-0.2-0.5-0.3c-0.5-0.2-1.2-0.3-1.8-0.5
				c-1-0.2-2.2-0.3-3.9-0.4c-2.1-0.1-3.3-0.3-4.2-0.5c-0.8-0.1-1.4-0.3-1.8-0.5c-0.4-0.1-0.7-0.3-0.9-0.5c-0.2-0.2-0.3-0.5-0.5-0.8
				c-0.3-0.8-0.6-1.7-0.6-2.9c0-0.9,0.2-2.3,1-3.4c0.2-0.3,0.4-0.4,0.7-0.6c0.3-0.1,0.6-0.2,1-0.3c1.9-0.4,3.5-0.5,5.8-0.5
				c2.4,0,4.6,0.2,6.2,0.6c0.4,0.1,0.6,0.2,0.9,0.4c0.3,0.2,0.4,0.4,0.6,0.6c0.9,1.3,1,2.8,1,4V99l-3-0.1l0-0.5
				c0-0.8-0.1-1.4-0.3-2.1l0-0.1c-0.1-0.2-0.1-0.2-0.2-0.3c-0.1-0.1-0.2-0.2-0.5-0.3c-1.4-0.4-3-0.4-4.5-0.4c-1.8,0-2.8,0-4.1,0.3
				c-0.3,0.1-0.5,0.1-0.6,0.2c-0.1,0-0.2,0.1-0.2,0.2c-0.4,0.6-0.6,1.3-0.6,2.1c0,0.6,0.1,1,0.3,1.4c0,0.2,0.1,0.3,0.2,0.4
				c0,0.1,0.2,0.2,0.4,0.2c0.3,0.1,0.9,0.3,1.7,0.4c0.9,0.1,2,0.3,3.4,0.3c2.1,0.1,3.4,0.2,4.5,0.4c0.6,0.1,1.4,0.3,1.9,0.5
				c0.5,0.2,0.7,0.3,0.9,0.5c0.2,0.2,0.4,0.4,0.6,0.9c0.3,0.8,0.7,1.8,0.7,2.9c0,1.5-0.3,2.8-1,3.7c-0.2,0.2-0.3,0.4-0.6,0.6
				c-0.2,0.1-0.4,0.2-0.9,0.3l-0.1,0C486.7,111,484,111.1,482.1,111.1z M474,105.6c0,0.9,0.2,2.5,0.8,3.7l0,0
				c0.2,0.2,0.2,0.3,0.4,0.4c0.1,0.1,0.4,0.1,0.7,0.2l0.1,0c1.3,0.4,3.3,0.6,6,0.6c2.7,0,5-0.2,6.6-0.5l0.1,0
				c0.4-0.1,0.6-0.2,0.8-0.2c0.2-0.1,0.3-0.2,0.5-0.4c0.6-0.8,0.9-1.9,0.9-3.4c0-1.1-0.4-2-0.6-2.7c-0.1-0.3-0.3-0.5-0.4-0.6
				c-0.2-0.1-0.4-0.2-0.8-0.5c-0.5-0.2-1.2-0.3-1.8-0.5c-1.1-0.2-2.4-0.3-4.5-0.4c-1.5-0.1-2.6-0.2-3.5-0.3
				c-0.8-0.2-1.4-0.3-1.8-0.4c-0.3-0.1-0.5-0.3-0.6-0.4c-0.1-0.2-0.2-0.4-0.3-0.6c-0.2-0.5-0.3-0.9-0.3-1.6c0-0.9,0.3-1.7,0.7-2.4
				c0.1-0.2,0.3-0.3,0.4-0.4c0.2-0.1,0.4-0.1,0.8-0.2c1.3-0.2,2.3-0.3,4.2-0.3c1.6,0,3.2,0.1,4.7,0.5c0.3,0.1,0.5,0.2,0.7,0.4
				c0.2,0.2,0.2,0.3,0.3,0.5l0,0.1c0.3,0.8,0.3,1.5,0.4,2.3l2,0c0-1.1-0.2-2.4-0.9-3.5c-0.1-0.2-0.2-0.4-0.4-0.5
				c-0.2-0.1-0.4-0.2-0.8-0.3c-1.5-0.4-3.7-0.6-6-0.6c-2.4,0-3.9,0.1-5.8,0.5c-0.5,0.1-0.7,0.1-0.9,0.3c-0.2,0.1-0.3,0.2-0.5,0.4
				c-0.7,1-0.9,2.2-0.9,3.1c0,1.1,0.3,1.9,0.6,2.7c0.1,0.3,0.2,0.5,0.4,0.6c0.2,0.2,0.4,0.3,0.7,0.4c0.4,0.2,1,0.3,1.7,0.5
				c0.9,0.2,2,0.3,4.1,0.4c1.7,0.1,3,0.2,4,0.4c0.7,0.1,1.4,0.3,2,0.5c0.3,0.1,0.5,0.3,0.6,0.4l0.1,0.1c0.1,0.2,0.2,0.3,0.2,0.4
				c0,0.1,0,0.1,0.1,0.2c0.2,0.7,0.3,1.2,0.3,1.9c0,0.9-0.2,1.7-0.7,2.4c-0.2,0.2-0.3,0.3-0.5,0.4l-0.2,0c-0.1,0-0.3,0.1-0.5,0.1
				c-1.3,0.2-2.8,0.3-5.1,0.3c-1.5,0-3.2,0-4.6-0.5c-0.3-0.1-0.5-0.2-0.7-0.3c-0.2-0.1-0.2-0.3-0.3-0.5l-0.1-0.1
				c-0.3-0.9-0.4-1.7-0.4-2.5L474,105.6z"/>
		</g>
	</g>
</g>
<g>
	<rect x="317.5" y="30.7" class="st1" width="6.5" height="24.9"/>
	<polygon class="st1" points="324,59.9 317.5,59.9 317.5,78 354,78 354,73.7 324,73.7 	"/>
</g>
<g>
	<polygon class="st1" points="393.9,55.5 393.9,51.4 363.8,51.4 363.8,34.6 395.5,34.6 395.5,30.7 357.3,30.7 357.3,55.5 	"/>
	<polygon class="st1" points="363.8,59.9 357.3,59.9 357.3,78 396.8,78 396.8,73.9 363.8,73.9 	"/>
</g>
<g>
	<polygon class="st1" points="418.8,55.5 425.4,55.5 425.4,34.9 445,34.9 445,30.7 399.1,30.7 399.1,34.9 418.8,34.9 	"/>
	<rect x="418.8" y="59.9" class="st1" width="6.6" height="18.1"/>
</g>
<g>
	<rect x="447.9" y="59.9" class="st1" width="6.5" height="18.1"/>
	<polygon class="st1" points="495.9,55.5 495.9,30.7 489.3,30.7 489.3,51.4 454.4,51.4 454.4,30.7 447.9,30.7 447.9,55.5 	"/>
	<rect x="489.3" y="59.9" class="st1" width="6.6" height="18.1"/>
</g>
<g>
	<path class="st1" d="M514.8,55.5l8.5-20c0.2-0.5,0.4-0.7,0.5-1l0.2-0.2c0.1-0.1,0.2-0.1,0.3-0.2c0.3-0.1,0.9-0.3,1.3-0.3
		c0.4,0,0.9,0.1,1.3,0.2c0.1,0.1,0.2,0.1,0.3,0.2l0.2,0.2c0.1,0.3,0.3,0.6,0.4,0.9l8.6,20.1h6.8l-8.8-19.8c-0.5-1.1-1-2.1-1.5-3.1
		c-0.3-0.4-0.5-0.8-0.8-1c-0.2-0.2-0.5-0.3-1-0.5c-1.6-0.7-3.7-1-5.4-1c-1.9,0-3.9,0.3-5.4,1c-0.4,0.2-0.7,0.3-0.9,0.5
		c-0.3,0.2-0.5,0.6-0.8,1c-0.6,0.9-1.1,2-1.6,3.1l-8.8,19.8H514.8z"/>
	<polygon class="st1" points="506.1,59.9 498.1,78 505.2,78 509.6,67.6 512.2,61.6 513,59.9 	"/>
	<polygon class="st1" points="538.3,59.9 539,61.6 541.6,67.6 546.1,78 553.2,78 545.1,59.9 	"/>
</g>
<g>
	<rect x="555.3" y="30.7" class="st1" width="6.5" height="24.9"/>
	<polygon class="st1" points="561.8,73.7 561.8,59.9 555.3,59.9 555.3,78 591.8,78 591.8,73.7 	"/>
</g>
</svg>
