<?xml version="1.0" encoding="utf-8"?>
<!-- Generator: Adobe Illustrator 19.1.0, SVG Export Plug-In . SVG Version: 6.00 Build 0)  -->
<svg version="1.1" id="Layer_1" xmlns="http://www.w3.org/2000/svg" xmlns:xlink="http://www.w3.org/1999/xlink" x="0px" y="0px"
	 viewBox="-260 167.4 278.9 117.6" style="enable-background:new -260 167.4 278.9 117.6;" xml:space="preserve">
<style type="text/css">
	.st0{fill:#FFFFFF;}
	.st1{enable-background:new    ;}
	.st2{fill:#A7A9AC;}
</style>
<path class="st0" d="M-89.7,252.6v-35.3h46v6h-38.8v22.4h0.3c0.5-1.3,1.2-2.4,2.2-3.2c0.5-0.4,0.8-0.7,1.3-0.8
	c0.3-0.1,1.2-0.4,2.2-0.6c4.7-0.8,9.8-0.9,14.8-0.9c5.2,0,10.6,0.6,14.4,2.4c1,0.5,1.7,0.8,2.2,1.4c0.3,0.5,0.7,1.3,1.2,2.4
	c1.5,4.4,2.1,10.2,2.1,15.9c0,6-0.7,11.8-2.5,16.4c-0.5,1.3-0.9,1.9-1.5,2.5c-0.6,0.5-1.4,0.8-2.8,1.3c-4.7,1.9-11.2,2.5-19.4,2.5
	c-7.1,0-12.7-0.6-16.8-2.1c-1.3-0.5-1.9-0.8-2.3-1.3c-0.6-0.6-0.9-1.2-1.4-2.2c-1.5-4.1-2.1-9.6-2.1-15.1h6.9
	c0,3.9,0.2,7.7,1.3,10.6c0.3,0.8,0.5,1.2,0.8,1.5c0.2,0.4,0.7,0.6,1.5,0.9c2.3,1.1,5.9,1.5,13,1.5c7.4,0,11.2-0.5,13.9-1.8
	c0.8-0.4,1.3-0.5,1.6-0.9s0.6-0.8,0.9-1.7c1-3.2,1.3-7.3,1.3-11.6c0-4.3-0.2-8.6-1.3-11.9c-0.3-0.8-0.5-1.3-0.8-1.8
	c-0.3-0.4-0.8-0.6-1.4-1.1c-2.4-1.1-6.1-1.7-11.3-1.7c-6.6,0-11.3,0.4-14.6,1.2c-1.3,0.4-1.5,0.5-2,0.8c-0.3,0.4-0.6,0.7-0.9,1.3
	c-0.5,0.8-0.8,1.8-1.2,2.8h-6.8V252.6z"/>
<path class="st0" d="M-7.1,285c-5.8,0-13.4-0.2-19.6-3.2c-1.4-0.6-2.2-1.1-2.8-1.9c-0.5-0.8-0.8-1.7-1.3-3.1
	c-2.4-8.4-2.5-19.6-2.5-26c0-6.6,0-17.7,2.5-26c0.5-1.5,0.8-2.5,1.3-3.1c0.6-0.8,1.4-1.2,2.8-2c6-3.1,14.6-3.1,19.6-3.1
	c4.7,0,13.3,0.1,19.6,3.2c1.3,0.8,2,1.2,2.5,2c0.5,0.6,0.9,1.5,1.4,3.1c2.4,8.3,2.5,19.5,2.5,26c0,6.4-0.1,17.7-2.5,26
	c-0.5,1.4-0.9,2.2-1.4,3.1c-0.6,0.8-1.5,1.3-2.5,1.9C6,284.6-1.6,285-7.1,285z M8.5,274.7c0.5-0.6,0.7-1.4,1-2.5
	c1.5-5.7,2.1-13.5,2.1-21.5s-0.6-15.9-2.1-21.5c-0.3-1.3-0.6-1.9-1-2.5c-0.3-0.5-0.8-0.9-1.6-1.5c-3.6-2-8.8-2.8-14-2.8
	c-5.6,0-10.8,0.8-14.1,2.8c-0.8,0.6-1.3,1.1-1.7,1.5c-0.3,0.6-0.6,1.2-0.9,2.5c-1.7,5.5-2.2,13.5-2.2,21.5s0.5,15.8,2.2,21.5
	c0.3,1.1,0.6,1.9,0.9,2.5c0.5,0.6,0.9,1.1,1.7,1.5c3.4,1.9,8.6,2.7,14.1,2.7c5.2,0,10.4-0.8,14-2.7C7.7,275.8,8.2,275.3,8.5,274.7z"
	/>
<path class="st0" d="M-260,217.8h13.4c6.4,0,10,4.4,10,9.6s-3.6,9.6-10,9.6h-8v11.4h-5.4V217.8z M-247.3,222.5h-7.3v9.7h7.3
	c3,0,5.2-1.9,5.2-4.9S-244.3,222.5-247.3,222.5z"/>
<path class="st0" d="M-231.8,217.8h20.9v4.7h-15.5v7.9h15.2v4.7h-15.2v8.5h15.6v4.7h-21V217.8z"/>
<path class="st0" d="M-205,217.8h13.4c6.4,0,10,4.4,10,9.6s-3.6,9.6-10,9.6h-8.1v11.4h-5.3V217.8z M-192.3,222.5h-7.3v9.7h7.3
	c3,0,5.2-1.9,5.2-4.9S-189.3,222.5-192.3,222.5z"/>
<path class="st0" d="M-176.7,217.8h13.4c6.4,0,10,4.4,10,9.6s-3.6,9.6-10,9.6h-8.1v11.4h-5.4L-176.7,217.8L-176.7,217.8z
	 M-164.1,222.5h-7.3v9.7h7.3c3,0,5.2-1.9,5.2-4.9S-161,222.5-164.1,222.5z"/>
<path class="st0" d="M-148.5,217.8h20.9v4.7h-15.6v7.9h15.2v4.7h-15.2v8.5h15.6v4.7h-20.9C-148.5,248.3-148.5,217.8-148.5,217.8z"/>
<path class="st0" d="M-111,236.9h-5.3v11.4h-5.4v-30.5h13.4c6,0,10,3.9,10,9.6c0,5.4-3.6,8.4-7.2,9l7.5,12h-6.2L-111,236.9z
	 M-109,222.5h-7.3v9.7h7.3c3,0,5.2-1.9,5.2-4.9S-106,222.5-109,222.5z"/>
<path class="st0" d="M-178.2,253.9h13.4c6.4,0,10,4.4,10,9.6c0,5.2-3.6,9.6-10,9.6h-8.1v11.4h-5.4L-178.2,253.9L-178.2,253.9z
	 M-165.6,258.6h-7.3v9.7h7.3c3,0,5.2-1.9,5.2-4.9S-162.5,258.6-165.6,258.6z"/>
<path class="st0" d="M-134.3,278.5h-14l-2.2,5.9h-6.1l12-30.5h6.7l12,30.5h-6.1L-134.3,278.5z M-146.8,273.8h11l-5.5-14.6
	L-146.8,273.8z"/>
<path class="st0" d="M-114.2,271.5l-2.7,3.1v9.7h-5.4v-30.4h5.4v14.6l11.9-14.6h6.6l-12.4,14.4l13.3,16.1h-6.5L-114.2,271.5z"/>
<g class="st1">
	<path class="st2" d="M-204.2,167.7v17.5h-2.6v-17.5H-204.2z"/>
	<path class="st2" d="M-197.7,185.1h-2.6v-17.5h2.7l9.5,12.9v-12.9h2.6v17.5h-2.5l-9.7-13.2V185.1z"/>
	<path class="st2" d="M-182.7,170v-2.3h13.5v2.3h-5.4v15.2h-2.6V170H-182.7z"/>
	<path class="st2" d="M-163.9,178.4v6.7h-2.6v-17.5h7.4c1.1,0,2.1,0.2,2.9,0.7c0.8,0.4,1.5,1.1,2,1.9c0.5,0.8,0.7,1.8,0.7,2.8
		c0,1.5-0.4,2.7-1.3,3.6c-0.8,0.9-1.9,1.4-3.1,1.6l4.5,7h-3l-4.2-6.7H-163.9z M-159.5,170h-4.4v6.1h4.4c0.9,0,1.7-0.3,2.3-0.9
		c0.6-0.6,0.9-1.3,0.9-2.2s-0.3-1.6-0.9-2.2C-157.8,170.2-158.5,170-159.5,170z"/>
	<path class="st2" d="M-146.8,168.5c1.3-0.8,2.9-1.2,4.6-1.2c1.7,0,3.2,0.4,4.6,1.2c1.3,0.8,2.4,1.9,3.1,3.2
		c0.7,1.4,1.1,2.9,1.1,4.6c0,1.7-0.4,3.3-1.1,4.6c-0.7,1.4-1.8,2.5-3.1,3.2s-2.9,1.2-4.6,1.2c-1.7,0-3.2-0.4-4.6-1.2
		c-1.3-0.8-2.4-1.9-3.1-3.2c-0.7-1.4-1.1-2.9-1.1-4.6c0-1.7,0.4-3.3,1.1-4.6C-149.2,170.4-148.1,169.3-146.8,168.5z M-139,170.6
		c-0.9-0.6-2-0.9-3.2-0.9c-1.2,0-2.3,0.3-3.2,0.9c-0.9,0.6-1.6,1.4-2.1,2.4c-0.5,1-0.7,2.2-0.7,3.4c0,1.3,0.2,2.4,0.7,3.4
		c0.5,1,1.2,1.8,2.1,2.4c0.9,0.6,2,0.9,3.2,0.9c1.2,0,2.3-0.3,3.2-0.9c0.9-0.6,1.6-1.4,2.2-2.4c0.5-1,0.8-2.2,0.8-3.4
		c0-1.3-0.3-2.4-0.8-3.4C-137.4,171.9-138.1,171.1-139,170.6z"/>
	<path class="st2" d="M-124,167.7c1.8,0,3.4,0.4,4.7,1.1c1.4,0.8,2.4,1.8,3.2,3.1c0.8,1.3,1.1,2.8,1.1,4.5c0,1.7-0.4,3.2-1.1,4.5
		c-0.8,1.3-1.8,2.4-3.2,3.1c-1.4,0.8-3,1.1-4.7,1.1h-6.2v-17.5H-124z M-120.6,182c1-0.6,1.7-1.3,2.2-2.3c0.5-1,0.8-2.1,0.8-3.3
		c0-1.2-0.2-2.3-0.7-3.3c-0.5-1-1.2-1.8-2.2-2.3c-1-0.6-2.1-0.9-3.4-0.9h-3.6v12.9h3.6C-122.7,182.8-121.5,182.6-120.6,182z"/>
	<path class="st2" d="M-109.1,167.7v10.6c0,1.5,0.4,2.7,1.2,3.6c0.8,0.9,2,1.3,3.5,1.3c1.5,0,2.7-0.4,3.5-1.3
		c0.8-0.9,1.2-2.1,1.2-3.6v-10.6h2.6v10.6c0,2.2-0.6,4-1.9,5.3s-3.1,1.9-5.5,1.9c-2.4,0-4.2-0.6-5.5-1.9c-1.3-1.3-1.9-3-1.9-5.2
		v-10.6H-109.1z"/>
	<path class="st2" d="M-92.6,181.1c-0.8-1.4-1.2-2.9-1.2-4.7c0-1.7,0.4-3.3,1.2-4.7c0.8-1.4,1.9-2.5,3.3-3.2
		c1.4-0.8,2.9-1.1,4.6-1.1c2.9,0,5.2,1.2,6.8,3.7l-2.2,1.2c-0.5-0.8-1.1-1.4-1.9-1.8c-0.8-0.5-1.7-0.7-2.7-0.7
		c-1.2,0-2.3,0.3-3.3,0.9c-1,0.6-1.7,1.4-2.3,2.4c-0.6,1-0.8,2.2-0.8,3.5c0,1.3,0.3,2.4,0.8,3.4c0.5,1,1.3,1.8,2.3,2.4
		c1,0.6,2.1,0.9,3.3,0.9c1,0,1.9-0.2,2.7-0.7c0.8-0.5,1.5-1.1,1.9-1.8l2.2,1.2c-1.7,2.5-4,3.7-6.8,3.7c-1.7,0-3.2-0.4-4.6-1.1
		C-90.8,183.6-91.8,182.5-92.6,181.1z"/>
	<path class="st2" d="M-72.7,167.7v17.5h-2.6v-17.5H-72.7z"/>
	<path class="st2" d="M-66.1,185.1h-2.6v-17.5h2.7l9.5,12.9v-12.9h2.6v17.5h-2.5l-9.7-13.2V185.1z"/>
	<path class="st2" d="M-46.2,168.5c1.4-0.8,2.9-1.1,4.6-1.1c2.9,0,5.2,1.2,6.9,3.5l-2.1,1.2c-0.5-0.7-1.2-1.3-2.1-1.7
		c-0.8-0.4-1.8-0.7-2.7-0.7c-1.2,0-2.3,0.3-3.3,0.9c-1,0.6-1.7,1.4-2.3,2.4c-0.6,1-0.8,2.2-0.8,3.5c0,1.3,0.3,2.4,0.8,3.5
		c0.5,1,1.3,1.8,2.3,2.4c1,0.6,2.1,0.9,3.3,0.9c1.5,0,2.8-0.5,3.7-1.4c0.9-0.9,1.5-2.1,1.8-3.5h-6.7V176h9.5c0,1.9-0.3,3.6-1,5
		c-0.7,1.4-1.7,2.5-3,3.3c-1.3,0.8-2.8,1.2-4.6,1.2c-1.6,0-3.1-0.4-4.4-1.1c-1.3-0.8-2.4-1.8-3.2-3.2c-0.8-1.4-1.2-3-1.2-4.7
		c0-1.8,0.4-3.3,1.2-4.7C-48.7,170.3-47.6,169.2-46.2,168.5z"/>
</g>
</svg>
