<?xml version="1.0" encoding="utf-8"?>
<!-- Generator: Adobe Illustrator 19.1.0, SVG Export Plug-In . SVG Version: 6.00 Build 0)  -->
<svg version="1.1" id="Layer_1" xmlns="http://www.w3.org/2000/svg" xmlns:xlink="http://www.w3.org/1999/xlink" x="0px" y="0px"
	 viewBox="0 0 416.3 184.9" style="enable-background:new 0 0 416.3 184.9;" xml:space="preserve">
<style type="text/css">
	.st0{fill:#FFFFFF;}
</style>
<g>
	<g>
		<path class="st0" d="M20.1,42.6h-4.8V3.8H1V0h33.5v3.8H20.1V42.6z"/>
	</g>
	<g>
		<path class="st0" d="M43.5,18.6H69V0h4.8v42.6H69V22.4H43.5v20.2h-4.7V0h4.7V18.6z"/>
	</g>
	<g>
		<path class="st0" d="M107.9,18.6v3.8H86v16.4h24.1v3.8H81.2V0h27.9v3.5H86v15.1H107.9z"/>
	</g>
	<g>
		<path class="st0" d="M164.8,38.9v-3.1V0h4.7v42.6h-8.2L139.3,6.7c-0.7-1-1.2-2-1.8-3.2h-0.2c0,1.1,0.1,2.3,0.1,3.2v35.9h-4.7V0
			h7.6l22.6,35.8c0.7,1.1,1.3,2.2,1.9,3.1H164.8z"/>
	</g>
	<g>
		<path class="st0" d="M203.7,18.6v3.8h-21.9v16.4h24.1v3.8H177V0h27.9v3.5h-23.1v15.1H203.7z"/>
	</g>
	<g>
		<path class="st0" d="M251.3,38.3c-0.3,1-0.6,1.9-1,2.7c-0.2,0.3-0.4,0.5-0.6,0.7c-0.1,0.1-0.2,0.2-0.6,0.5c-1,0.6-2.3,0.8-3.6,0.8
			c-1.2,0-2.4-0.2-3.6-0.8c-0.3-0.2-0.4-0.3-0.7-0.5c-0.1-0.1-0.2-0.4-0.4-0.7c-0.4-0.8-0.6-1.7-0.8-2.7l-4.2-16.8
			c-0.3-1.2-0.4-2.4-0.7-3.6h-0.2c-0.2,1.2-0.4,2.4-0.7,3.6l-4.1,16.8c-0.3,1-0.6,1.9-1,2.7c-0.2,0.3-0.3,0.5-0.4,0.7
			c-0.2,0.2-0.4,0.3-0.7,0.5c-1,0.6-2.4,0.8-3.5,0.8c-1.3,0-2.7-0.2-3.6-0.8c-0.4-0.2-0.4-0.2-0.7-0.5c-0.2-0.2-0.3-0.4-0.5-0.7
			c-0.4-0.8-0.7-1.7-1-2.7L208,0h5.2l10.2,38.6c0.1,0.4,0.1,0.4,0.2,0.7c0.1,0.1,0.1,0.1,0.1,0.2c0,0,0.1,0.1,0.2,0.2
			c0.2,0.1,0.5,0.1,0.8,0.1c0.2,0,0.4-0.1,0.7-0.1l0.1-0.2c0.1-0.1,0.1-0.1,0.2-0.2c0.1-0.2,0.1-0.3,0.2-0.7l6.1-26.5h6.2l6.1,26.5
			c0.1,0.4,0.2,0.4,0.2,0.7c0.1,0.1,0.1,0.1,0.2,0.2l0.1,0.2c0.2,0.1,0.4,0.1,0.7,0.1c0.3,0,0.6,0,0.9-0.2l0.1-0.1l0.2-0.1
			c0.2-0.4,0.2-0.4,0.3-0.8L257.3,0h5.1L251.3,38.3z"/>
	</g>
</g>
<g>
	<g>
		<path class="st0" d="M1,184.3v-67.5h28.3c6,0,15.8,0,22.8,3.1c1.6,0.8,2.4,1.3,3,1.9c0.6,0.8,1.1,1.5,1.7,3.1
			c3.1,7.8,2.9,19.5,2.9,25.7c0,6.3,0.2,17.4-2.9,25.7c-0.5,1.3-0.8,2.3-1.7,3.1c-0.6,0.6-1.4,1.1-3,1.9c-7.1,2.9-16.1,3.1-22.8,3.1
			H1z M29.3,178.4c6.4,0,13.1-0.8,16.9-2.6c1.3-0.6,1.9-1.1,2.4-1.7c0.5-0.6,0.8-1.3,1.2-2.4c1.8-5.6,2.4-13.3,2.4-21.3
			c0-8-1-15.8-2.5-21c-0.5-1.4-0.7-2.1-1.1-2.6c-0.5-0.6-1.1-1.1-2.4-1.7c-3.7-1.9-10.5-2.7-16.9-2.7H8.7v56H29.3z"/>
	</g>
	<g>
		<path class="st0" d="M114,146.3v6.1H78.3v26h39.1v5.9H70.6v-67.5h45.3v5.6H78.3v23.9H114z"/>
	</g>
	<g>
		<path class="st0" d="M168.9,147.7v6.3h-34.7v30.3h-7.8v-67.5h44.3v5.6h-36.5v25.3H168.9z"/>
	</g>
	<g>
		<path class="st0" d="M222.8,146.3v6.1h-35.7v26h39.1v5.9h-46.9v-67.5h45.3v5.6h-37.6v23.9H222.8z"/>
	</g>
	<g>
		<path class="st0" d="M287.6,178.5v-5v-56.7h7.7v67.5H282l-35.9-56.9c-1.1-1.5-1.9-3.2-2.9-5h-0.4c0,1.8,0.1,3.6,0.1,5v56.9h-7.7
			v-67.5h12.3l36.7,56.7c1.1,1.8,2,3.4,3.1,5H287.6z"/>
	</g>
	<g>
		<path class="st0" d="M312.9,163.2c0,3.7,0.1,7.1,1.1,10.5c0.4,1,0.5,1.5,1,2c0.4,0.4,1,0.8,1.9,1.2c4.3,1.8,9.9,1.9,14.2,1.9
			c5.8,0,11.3-0.2,15.8-1.2c0.8-0.2,1.5-0.5,1.8-0.6c0.5-0.2,0.8-0.6,1.2-1.2c1.5-2.9,1.9-5.8,1.9-8.8c0-2.7-0.4-4.4-1-7.1
			c-0.4-1.1-0.4-1.4-0.8-2.3c-0.4-0.4-0.8-0.8-1.7-1.3c-1.6-0.8-4-1.4-5.9-1.9c-2.8-0.6-6.4-1.1-12.3-1.4c-6.1-0.5-10-1-12.9-1.8
			c-2-0.5-4-1.1-5.4-1.9c-1.3-0.6-2-1.2-2.5-1.8c-0.5-0.6-0.8-1.4-1.3-2.9c-1-3.2-1.8-6.7-1.8-10.9c0-4.6,0.8-9.3,2.9-12.7
			c0.6-0.9,1-1.3,1.8-1.9c0.8-0.5,1.6-0.7,3-1.1c5.5-1.3,10.2-1.9,18.1-1.9c6.9,0,13.9,0.7,19,2.3c1.3,0.5,1.8,0.7,2.8,1.3
			c0.6,0.6,1,1.2,1.5,2.1c2.4,4.6,2.9,10.1,2.9,15.3l-7.7-0.2c-0.1-3.7-0.1-6.2-1.1-9.5c-0.4-1-0.5-1.4-1-2c-0.5-0.5-1-0.8-1.9-1.3
			c-4.5-1.5-9.4-1.8-14.3-1.8c-5.7,0-8.8,0.1-12.9,1.1c-1,0.2-1.7,0.5-2.2,0.7c-0.4,0.2-0.7,0.6-1.1,1.2c-1.4,2.7-2,6.1-2,8.9
			c0,2.4,0.4,4,1,6.1c0.1,0.8,0.4,1.4,0.7,1.9c0.2,0.4,0.7,0.8,1.6,1.2c1.3,0.6,3.5,1.2,5.4,1.7c2.3,0.5,5.5,0.9,10.8,1.3
			c6.4,0.5,10.6,0.8,14,1.7c1.9,0.5,4.3,1.1,5.9,1.9c1.5,0.8,2.2,1.3,2.8,1.9c0.6,0.6,1.1,1.5,1.6,3c1,3.2,2,6.9,2,11.2
			c0,4.9-0.7,10-3,13.8c-0.5,1-0.8,1.5-1.7,2c-0.6,0.5-1.4,0.7-3,1.2c-5.4,1.4-12.9,2-20.6,2c-6.9,0-13.8-0.5-18.8-2.3
			c-1.4-0.5-2.3-0.7-2.9-1.2c-0.6-0.5-1-1.2-1.6-2.3c-1.9-4.8-2.6-10.8-2.6-16.2L312.9,163.2z"/>
	</g>
	<g>
		<path class="st0" d="M412.8,146.3v6.1h-35.6v26h39.1v5.9h-46.8v-67.5h45.3v5.6h-37.6v23.9H412.8z"/>
	</g>
</g>
<g>
	<g>
		<path class="st0" d="M15.4,57.6c4.1,0,7.8,0.9,11,2.6c3.2,1.7,5.6,4.2,7.4,7.3c1.8,3.1,2.6,6.6,2.6,10.4c0,3.9-0.9,7.4-2.6,10.4
			c-1.7,3.1-4.2,5.5-7.4,7.2c-3.2,1.7-6.9,2.6-11,2.6H1V57.6H15.4z M23.3,90.7c2.2-1.3,3.9-3.1,5.1-5.4c1.2-2.3,1.8-4.8,1.8-7.5
			c0-2.8-0.6-5.3-1.7-7.6c-1.2-2.3-2.8-4.1-5.1-5.4c-2.2-1.3-4.9-2-7.9-2H7v29.8h8.4C18.4,92.7,21.1,92,23.3,90.7z"/>
		<path class="st0" d="M15.4,99H0V56.6h15.4c4.3,0,8.1,0.9,11.4,2.7c3.3,1.8,5.9,4.4,7.8,7.6c1.8,3.2,2.8,6.9,2.8,10.9
			c0,4-0.9,7.7-2.7,10.9c-1.8,3.2-4.4,5.7-7.8,7.6C23.5,98.1,19.7,99,15.4,99z M1.9,97.1h13.5c3.9,0,7.5-0.8,10.5-2.5
			c3-1.6,5.4-3.9,7-6.8c1.6-2.9,2.5-6.2,2.5-9.9c0-3.7-0.8-7-2.5-9.9c-1.7-2.9-4-5.2-7-6.9c-3-1.7-6.6-2.5-10.5-2.5H1.9V97.1z
			 M15.4,93.6H6.1V61.9h9.3c3.2,0,6.1,0.7,8.4,2.1c2.4,1.4,4.2,3.3,5.4,5.8c1.2,2.4,1.8,5.1,1.8,8c0,2.9-0.6,5.6-1.9,8
			c-1.3,2.4-3.1,4.4-5.5,5.8h0C21.4,92.9,18.6,93.6,15.4,93.6z M8,91.7h7.4c2.8,0,5.3-0.6,7.4-1.8l0,0c2.1-1.2,3.7-2.9,4.7-5
			c1.1-2.1,1.7-4.5,1.7-7.1c0-2.6-0.5-5-1.6-7.2c-1.1-2.1-2.6-3.8-4.7-5c-2.1-1.2-4.6-1.8-7.5-1.8H8V91.7z"/>
	</g>
	<g>
		<path class="st0" d="M71,57.6v5.3H49.8v11.8h20.7v5.3H49.8v12.6H71V98H43.8V57.6H71z"/>
		<path class="st0" d="M71.9,99H42.8V56.6h29.1v7.2H50.8v9.9h20.7V81H50.8v10.7h21.1V99z M44.7,97.1H70v-3.4H48.9V79.1h20.7v-3.4
			H48.9V61.9H70v-3.4H44.7V97.1z"/>
	</g>
	<g>
		<path class="st0" d="M105.8,57.6v5.3H84.6v11.8h20.7v5.3H84.6v18h-6.1V57.6H105.8z"/>
		<path class="st0" d="M85.6,99h-8V56.6h29.1v7.2H85.6v9.9h20.7V81H85.6V99z M79.5,97.1h4.2v-18h20.7v-3.4H83.7V61.9h21.1v-3.4H79.5
			V97.1z"/>
	</g>
	<g>
		<path class="st0" d="M118.4,57.6V98h-6.1V57.6H118.4z"/>
		<path class="st0" d="M119.4,99h-8V56.6h8V99z M113.3,97.1h4.2V58.5h-4.2V97.1z"/>
	</g>
	<g>
		<path class="st0" d="M133.5,98h-6.1V57.6h6.3l22,29.9V57.6h6.1V98h-5.9l-22.4-30.6V98z"/>
		<path class="st0" d="M162.8,99h-7.3l-21-28.6V99h-8V56.6h7.7l20.6,27.9V56.6h8V99z M156.4,97.1h4.5V58.5h-4.2v31.8l-23.5-31.8
			h-4.8v38.6h4.2V64.5L156.4,97.1z"/>
	</g>
	<g>
		<path class="st0" d="M176.9,57.6V98h-6.1V57.6H176.9z"/>
		<path class="st0" d="M177.8,99h-8V56.6h8V99z M171.8,97.1h4.2V58.5h-4.2V97.1z"/>
	</g>
	<g>
		<path class="st0" d="M183.3,62.9v-5.3h31.1v5.3h-12.5V98h-6.1V62.9H183.3z"/>
		<path class="st0" d="M202.9,99h-8V63.8h-12.6v-7.2h33v7.2h-12.5V99z M196.8,97.1h4.2V61.9h12.5v-3.4h-29.2v3.4h12.6V97.1z"/>
	</g>
	<g>
		<path class="st0" d="M226.8,57.6V98h-6.1V57.6H226.8z"/>
		<path class="st0" d="M227.8,99h-8V56.6h8V99z M221.7,97.1h4.2V58.5h-4.2V97.1z"/>
	</g>
	<g>
		<path class="st0" d="M244,59.6c3.1-1.8,6.6-2.7,10.6-2.7c4,0,7.5,0.9,10.6,2.7c3.1,1.8,5.5,4.3,7.2,7.5c1.7,3.2,2.6,6.8,2.6,10.7
			c0,4-0.9,7.5-2.6,10.7c-1.7,3.2-4.1,5.7-7.2,7.5c-3.1,1.8-6.6,2.7-10.6,2.7c-4,0-7.5-0.9-10.6-2.7c-3.1-1.8-5.5-4.3-7.2-7.5
			c-1.7-3.2-2.6-6.8-2.6-10.7c0-4,0.9-7.5,2.6-10.7C238.5,63.9,240.9,61.4,244,59.6z M262,64.3c-2.1-1.3-4.6-2-7.4-2
			c-2.8,0-5.3,0.7-7.5,2c-2.1,1.3-3.8,3.2-4.9,5.6c-1.2,2.4-1.7,5-1.7,8c0,3,0.6,5.6,1.7,8c1.2,2.4,2.8,4.2,4.9,5.6
			c2.1,1.3,4.6,2,7.5,2c2.8,0,5.3-0.7,7.4-2c2.1-1.4,3.8-3.2,5-5.6c1.2-2.3,1.8-5,1.8-7.9c0-3-0.6-5.6-1.8-8
			C265.8,67.5,264.1,65.6,262,64.3z"/>
		<path class="st0" d="M254.6,99.7c-4.1,0-7.8-1-11.1-2.8c-3.2-1.9-5.8-4.5-7.6-7.9c-1.8-3.3-2.7-7.1-2.7-11.2
			c0-4.1,0.9-7.9,2.7-11.2c1.8-3.3,4.3-6,7.6-7.9l0,0c3.2-1.9,7-2.8,11.1-2.8c4.1,0,7.8,1,11.1,2.8c3.2,1.9,5.8,4.5,7.6,7.9
			c1.8,3.3,2.7,7.1,2.7,11.2c0,4.1-0.9,7.9-2.7,11.2c-1.8,3.3-4.3,6-7.6,7.9C262.4,98.8,258.7,99.7,254.6,99.7z M244.4,60.4
			c-2.9,1.7-5.2,4.1-6.9,7.1c-1.6,3-2.5,6.5-2.5,10.3c0,3.8,0.8,7.3,2.5,10.3c1.6,3,3.9,5.4,6.9,7.1c2.9,1.7,6.3,2.6,10.1,2.6
			c3.8,0,7.2-0.9,10.1-2.6c2.9-1.7,5.2-4.1,6.9-7.1c1.6-3,2.5-6.5,2.5-10.3c0-3.8-0.8-7.3-2.5-10.3c-1.6-3-3.9-5.4-6.9-7.1
			c-2.9-1.7-6.3-2.6-10.1-2.6C250.8,57.8,247.4,58.7,244.4,60.4L244.4,60.4z M254.6,94.3c-3,0-5.7-0.7-8-2.1
			c-2.3-1.4-4.1-3.4-5.3-5.9c-1.2-2.5-1.8-5.3-1.8-8.4c0-3.1,0.6-5.9,1.8-8.4c1.2-2.5,3-4.5,5.3-5.9c2.3-1.4,5-2.1,8-2.1
			c3,0,5.6,0.7,7.9,2.1l0,0c2.3,1.4,4.1,3.4,5.3,5.9c1.2,2.5,1.9,5.3,1.9,8.4c0,3.1-0.6,5.9-1.9,8.4c-1.3,2.5-3,4.5-5.3,5.9
			C260.2,93.6,257.5,94.3,254.6,94.3z M254.6,63.2c-2.6,0-5,0.6-7,1.9c-2,1.2-3.5,3-4.6,5.2c-1.1,2.2-1.6,4.8-1.6,7.6
			c0,2.8,0.5,5.3,1.6,7.6c1.1,2.2,2.6,3.9,4.6,5.2c2,1.2,4.3,1.9,7,1.9c2.6,0,4.9-0.6,6.9-1.9c2-1.3,3.5-3,4.6-5.2
			c1.1-2.2,1.7-4.7,1.7-7.5s-0.6-5.3-1.7-7.6c-1.1-2.2-2.6-3.9-4.6-5.2C259.5,63.9,257.2,63.2,254.6,63.2z"/>
	</g>
	<g>
		<path class="st0" d="M288.4,98h-6.1V57.6h6.3l22,29.9V57.6h6.1V98h-5.9l-22.4-30.6V98z"/>
		<path class="st0" d="M317.6,99h-7.3l-21-28.6V99h-8V56.6h7.7l20.6,27.9V56.6h8V99z M311.3,97.1h4.5V58.5h-4.2v31.8l-23.5-31.8
			h-4.8v38.6h4.2V64.5L311.3,97.1z"/>
	</g>
	<g>
		<path class="st0" d="M349.5,59.6c3.1-1.8,6.6-2.7,10.6-2.7c4,0,7.5,0.9,10.6,2.7c3.1,1.8,5.5,4.3,7.2,7.5
			c1.7,3.2,2.6,6.8,2.6,10.7c0,4-0.9,7.5-2.6,10.7c-1.7,3.2-4.1,5.7-7.2,7.5c-3.1,1.8-6.6,2.7-10.6,2.7c-4,0-7.5-0.9-10.6-2.7
			c-3.1-1.8-5.5-4.3-7.2-7.5c-1.7-3.2-2.6-6.8-2.6-10.7c0-4,0.9-7.5,2.6-10.7C343.9,63.9,346.4,61.4,349.5,59.6z M367.5,64.3
			c-2.1-1.3-4.6-2-7.4-2c-2.8,0-5.3,0.7-7.5,2c-2.1,1.3-3.8,3.2-4.9,5.6c-1.2,2.4-1.7,5-1.7,8c0,3,0.6,5.6,1.7,8
			c1.2,2.4,2.8,4.2,4.9,5.6c2.1,1.3,4.6,2,7.5,2c2.8,0,5.3-0.7,7.4-2c2.1-1.4,3.8-3.2,5-5.6c1.2-2.3,1.8-5,1.8-7.9
			c0-3-0.6-5.6-1.8-8C371.3,67.5,369.6,65.6,367.5,64.3z"/>
		<path class="st0" d="M360,99.7c-4.1,0-7.8-1-11.1-2.8c-3.2-1.9-5.8-4.5-7.6-7.9c-1.8-3.3-2.7-7.1-2.7-11.2c0-4.1,0.9-7.9,2.7-11.2
			c1.8-3.3,4.3-6,7.6-7.9l0,0c3.2-1.9,7-2.8,11.1-2.8c4.1,0,7.8,1,11.1,2.8c3.2,1.9,5.8,4.5,7.6,7.9c1.8,3.3,2.7,7.1,2.7,11.2
			c0,4.1-0.9,7.9-2.7,11.2c-1.8,3.3-4.3,6-7.6,7.9C367.9,98.8,364.2,99.7,360,99.7z M349.9,60.4c-2.9,1.7-5.2,4.1-6.9,7.1
			c-1.6,3-2.5,6.5-2.5,10.3c0,3.8,0.8,7.3,2.5,10.3c1.6,3,3.9,5.4,6.9,7.1c2.9,1.7,6.3,2.6,10.1,2.6c3.8,0,7.2-0.9,10.1-2.6
			c2.9-1.7,5.2-4.1,6.9-7.1c1.6-3,2.5-6.5,2.5-10.3c0-3.8-0.8-7.3-2.5-10.3c-1.6-3-3.9-5.4-6.9-7.1c-2.9-1.7-6.3-2.6-10.1-2.6
			C356.3,57.8,352.9,58.7,349.9,60.4L349.9,60.4z M360,94.3c-3,0-5.7-0.7-8-2.1c-2.3-1.4-4.1-3.4-5.3-5.9c-1.2-2.5-1.8-5.3-1.8-8.4
			c0-3.1,0.6-5.9,1.8-8.4c1.2-2.5,3-4.5,5.3-5.9c2.3-1.4,5-2.1,8-2.1c3,0,5.6,0.7,7.9,2.1l0,0c2.3,1.4,4.1,3.4,5.3,5.9
			c1.2,2.5,1.9,5.3,1.9,8.4c0,3.1-0.6,5.9-1.9,8.4c-1.3,2.5-3,4.5-5.3,5.9C365.7,93.6,363,94.3,360,94.3z M360,63.2
			c-2.6,0-5,0.6-7,1.9c-2,1.2-3.5,3-4.6,5.2c-1.1,2.2-1.6,4.8-1.6,7.6c0,2.8,0.5,5.3,1.6,7.6c1.1,2.2,2.6,3.9,4.6,5.2
			c2,1.2,4.3,1.9,7,1.9c2.6,0,4.9-0.6,6.9-1.9c2-1.3,3.5-3,4.6-5.2c1.1-2.2,1.7-4.7,1.7-7.5s-0.6-5.3-1.7-7.6
			c-1.1-2.2-2.6-3.9-4.6-5.2C365,63.9,362.6,63.2,360,63.2z"/>
	</g>
	<g>
		<path class="st0" d="M415,57.6v5.3h-21.1v11.8h20.7v5.3h-20.7v18h-6.1V57.6H415z"/>
		<path class="st0" d="M394.8,99h-8V56.6H416v7.2h-21.1v9.9h20.7V81h-20.7V99z M388.8,97.1h4.2v-18h20.7v-3.4h-20.7V61.9h21.1v-3.4
			h-25.3V97.1z"/>
	</g>
</g>
</svg>
